<?xml version="1.0" standalone="no"?>
<!DOCTYPE svg PUBLIC "-//W3C//DTD SVG 20010904//EN"
 "http://www.w3.org/TR/2001/REC-SVG-20010904/DTD/svg10.dtd">
<svg version="1.0" xmlns="http://www.w3.org/2000/svg"
 width="96.000000pt" height="96.000000pt" viewBox="0 0 96.000000 96.000000"
 preserveAspectRatio="xMidYMid meet">
<metadata>
Created by potrace 1.14, written by Peter Selinger 2001-2017
</metadata>
<g transform="translate(0.000000,96.000000) scale(0.100000,-0.100000)"
fill="#000000" stroke="none">
<path d="M60 800 c-34 -34 -21 -122 24 -159 12 -10 12 -18 4 -43 -16 -44 -3
-227 22 -323 27 -108 44 -129 104 -133 26 -2 54 2 61 8 8 6 19 36 25 66 11 52
12 54 38 47 15 -4 43 -8 62 -8 29 0 36 4 38 22 3 23 2 24 -78 53 -70 25 -77
24 -94 -7 -8 -17 -20 -51 -27 -77 -15 -62 -38 -58 -61 11 -38 112 -50 286 -24
346 15 38 76 94 121 113 17 7 62 18 99 25 70 12 90 29 65 55 -12 11 -26 12
-79 3 -77 -12 -141 -39 -193 -80 -31 -25 -41 -28 -52 -19 -18 15 -19 44 -3 69
14 22 4 51 -17 51 -8 0 -24 -9 -35 -20z"/>
<path d="M524 777 c-10 -27 -1 -37 58 -61 31 -13 71 -35 88 -50 l32 -26 33 20
c36 22 53 24 75 10 12 -8 7 -17 -29 -54 -41 -41 -43 -47 -36 -83 5 -27 20 -51
51 -81 37 -35 43 -46 35 -61 -10 -18 -56 -33 -136 -46 -55 -9 -85 -44 -85
-101 0 -24 -5 -44 -10 -44 -6 0 -23 26 -38 58 -20 41 -34 58 -50 60 -46 7 -37
-50 20 -135 27 -40 32 -43 73 -43 59 0 75 18 75 84 l0 53 53 7 c57 8 125 35
144 57 15 18 33 97 27 114 -3 6 -19 18 -37 26 -17 8 -38 26 -46 40 -13 24 -12
28 27 78 23 29 42 61 42 71 0 44 -92 82 -150 61 -27 -9 -39 -6 -89 19 -76 39
-119 48 -127 27z"/>
<path d="M690 485 c-19 -23 -8 -50 20 -50 16 0 26 6 28 18 4 18 -14 47 -28 47
-4 0 -13 -7 -20 -15z"/>
</g>
</svg>
